<svg xmlns="http://www.w3.org/2000/svg" viewBox="0 0 800 600">
  <!-- 背景 -->
  <rect width="800" height="600" fill="#f8f9fa"/>
  
  <!-- タイトル -->
  <text x="400" y="35" font-size="24" font-weight="bold" text-anchor="middle" fill="#1a1a1a">
    生成AIの3つのフェーズ
  </text>
  
  <!-- フェーズ1 -->
  <g transform="translate(50, 80)">
    <rect x="0" y="0" width="200" height="140" rx="10" fill="#e3f2fd" stroke="#1976d2" stroke-width="3"/>
    <text x="100" y="30" font-size="18" font-weight="bold" text-anchor="middle" fill="#1976d2">第1フェーズ</text>
    <text x="100" y="55" font-size="16" font-weight="bold" text-anchor="middle" fill="#424242">生成 (Create)</text>
    <text x="100" y="80" font-size="12" text-anchor="middle" fill="#666">テキスト・画像生成</text>
    <text x="100" y="100" font-size="12" text-anchor="middle" fill="#666">メール・資料作成</text>
    <text x="100" y="120" font-size="12" text-anchor="middle" fill="#666">作業支援</text>
  </g>
  
  <!-- 矢印1 -->
  <g>
    <path d="M 270 150 L 300 150" stroke="#ff6b6b" stroke-width="3" fill="none" marker-end="url(#arrowhead)"/>
  </g>
  
  <!-- フェーズ2 -->
  <g transform="translate(300, 80)">
    <rect x="0" y="0" width="200" height="140" rx="10" fill="#fff3e0" stroke="#f57c00" stroke-width="3"/>
    <text x="100" y="30" font-size="18" font-weight="bold" text-anchor="middle" fill="#f57c00">第2フェーズ</text>
    <text x="100" y="55" font-size="16" font-weight="bold" text-anchor="middle" fill="#424242">理解と思考 (Reason)</text>
    <text x="100" y="80" font-size="12" text-anchor="middle" fill="#666">データ分析</text>
    <text x="100" y="100" font-size="12" text-anchor="middle" fill="#666">意思決定補助</text>
    <text x="100" y="120" font-size="12" text-anchor="middle" fill="#666">思考支援</text>
  </g>
  
  <!-- 矢印2 -->
  <g>
    <path d="M 520 150 L 550 150" stroke="#ff6b6b" stroke-width="3" fill="none" marker-end="url(#arrowhead)"/>
  </g>
  
  <!-- フェーズ3 -->
  <g transform="translate(550, 80)">
    <rect x="0" y="0" width="200" height="140" rx="10" fill="#e8f5e9" stroke="#388e3c" stroke-width="3"/>
    <text x="100" y="30" font-size="18" font-weight="bold" text-anchor="middle" fill="#388e3c">第3フェーズ</text>
    <text x="100" y="55" font-size="16" font-weight="bold" text-anchor="middle" fill="#424242">実行と統合 (Act)</text>
    <text x="100" y="80" font-size="12" text-anchor="middle" fill="#666">AIエージェント</text>
    <text x="100" y="100" font-size="12" text-anchor="middle" fill="#666">業務システム操作</text>
    <text x="100" y="120" font-size="12" text-anchor="middle" fill="#666">自律的実行</text>
  </g>
  
  <!-- AIエージェントの機能 -->
  <text x="400" y="260" font-size="18" font-weight="bold" text-anchor="middle" fill="#1a1a1a">AIエージェントの実行フロー</text>
  
  <!-- フロー図 -->
  <g transform="translate(100, 290)">
    <!-- ステップ1 -->
    <rect x="0" y="0" width="140" height="70" rx="8" fill="#fff" stroke="#1976d2" stroke-width="2"/>
    <text x="70" y="25" font-size="12" font-weight="bold" text-anchor="middle" fill="#1976d2">①データ取得</text>
    <text x="70" y="45" font-size="10" text-anchor="middle" fill="#666">CRM/ERPから</text>
    <text x="70" y="60" font-size="10" text-anchor="middle" fill="#666">情報収集</text>
    
    <!-- 矢印 -->
    <path d="M 140 35 L 165 35" stroke="#999" stroke-width="2" fill="none" marker-end="url(#arrowsmall)"/>
    
    <!-- ステップ2 -->
    <rect x="165" y="0" width="140" height="70" rx="8" fill="#fff" stroke="#f57c00" stroke-width="2"/>
    <text x="235" y="25" font-size="12" font-weight="bold" text-anchor="middle" fill="#f57c00">②処理・分析</text>
    <text x="235" y="45" font-size="10" text-anchor="middle" fill="#666">集計・加工</text>
    <text x="235" y="60" font-size="10" text-anchor="middle" fill="#666">レポート生成</text>
    
    <!-- 矢印 -->
    <path d="M 305 35 L 330 35" stroke="#999" stroke-width="2" fill="none" marker-end="url(#arrowsmall)"/>
    
    <!-- ステップ3 -->
    <rect x="330" y="0" width="140" height="70" rx="8" fill="#fff" stroke="#388e3c" stroke-width="2"/>
    <text x="400" y="25" font-size="12" font-weight="bold" text-anchor="middle" fill="#388e3c">③自動実行</text>
    <text x="400" y="45" font-size="10" text-anchor="middle" fill="#666">メール送信</text>
    <text x="400" y="60" font-size="10" text-anchor="middle" fill="#666">通知・共有</text>
  </g>
  
  <!-- 技術的ブレークスルー -->
  <text x="400" y="400" font-size="18" font-weight="bold" text-anchor="middle" fill="#1a1a1a">実現を支える3つの技術</text>
  
  <g transform="translate(40, 430)">
    <rect x="0" y="0" width="230" height="120" rx="8" fill="#f3e5f5" stroke="#7b1fa2" stroke-width="2"/>
    <text x="115" y="25" font-size="14" font-weight="bold" text-anchor="middle" fill="#7b1fa2">長期コンテキスト保持</text>
    <text x="115" y="50" font-size="11" text-anchor="middle" fill="#424242">GPT-5・Claude 4.1等</text>
    <text x="115" y="70" font-size="10" text-anchor="middle" fill="#666">会話履歴を長期記憶</text>
    <text x="115" y="88" font-size="10" text-anchor="middle" fill="#666">継続的な文脈理解</text>
    <text x="115" y="106" font-size="10" text-anchor="middle" fill="#666">自動改善が可能</text>
  </g>
  
  <g transform="translate(285, 430)">
    <rect x="0" y="0" width="230" height="120" rx="8" fill="#fce4ec" stroke="#c2185b" stroke-width="2"/>
    <text x="115" y="25" font-size="14" font-weight="bold" text-anchor="middle" fill="#c2185b">マルチモーダル対応</text>
    <text x="115" y="50" font-size="11" text-anchor="middle" fill="#424242">多様な入力形式</text>
    <text x="115" y="70" font-size="10" text-anchor="middle" fill="#666">テキスト・画像・音声</text>
    <text x="115" y="88" font-size="10" text-anchor="middle" fill="#666">ファイル・動画解析</text>
    <text x="115" y="106" font-size="10" text-anchor="middle" fill="#666">包括的な処理</text>
  </g>
  
  <g transform="translate(530, 430)">
    <rect x="0" y="0" width="230" height="120" rx="8" fill="#e0f2f1" stroke="#00796b" stroke-width="2"/>
    <text x="115" y="25" font-size="14" font-weight="bold" text-anchor="middle" fill="#00796b">外部API連携標準化</text>
    <text x="115" y="50" font-size="11" text-anchor="middle" fill="#424242">MCP・Autopilot等</text>
    <text x="115" y="70" font-size="10" text-anchor="middle" fill="#666">ERP/CRM接続</text>
    <text x="115" y="88" font-size="10" text-anchor="middle" fill="#666">メール・ドライブ操作</text>
    <text x="115" y="106" font-size="10" text-anchor="middle" fill="#666">安全なシステム統合</text>
  </g>
  
  <!-- 矢印の定義 -->
  <defs>
    <marker id="arrowhead" markerWidth="10" markerHeight="10" refX="9" refY="3" orient="auto">
      <polygon points="0 0, 10 3, 0 6" fill="#ff6b6b"/>
    </marker>
    <marker id="arrowsmall" markerWidth="8" markerHeight="8" refX="7" refY="3" orient="auto">
      <polygon points="0 0, 8 3, 0 6" fill="#999"/>
    </marker>
  </defs>
</svg>