<svg xmlns="http://www.w3.org/2000/svg" viewBox="0 0 800 600">
  <!-- 背景 -->
  <rect width="800" height="600" fill="#f8f9fa"/>
  
  <!-- タイトル -->
  <text x="400" y="40" font-size="24" font-weight="bold" text-anchor="middle" fill="#1a1a1a">
    Apps SDK：ChatGPTのプラットフォーム化
  </text>
  
  <!-- 従来のChatGPT -->
  <g transform="translate(100, 80)">
    <rect x="0" y="0" width="200" height="140" rx="10" fill="#e3f2fd" stroke="#1976d2" stroke-width="2"/>
    <text x="100" y="30" font-size="16" font-weight="bold" text-anchor="middle" fill="#1976d2">従来のChatGPT</text>
    <text x="100" y="60" font-size="14" text-anchor="middle" fill="#424242">対話型AI</text>
    <text x="100" y="85" font-size="12" text-anchor="middle" fill="#666">質問 → 回答</text>
    <text x="100" y="110" font-size="12" text-anchor="middle" fill="#666">テキスト生成</text>
  </g>
  
  <!-- 矢印 -->
  <g>
    <path d="M 340 150 L 420 150" stroke="#ff6b6b" stroke-width="3" fill="none" marker-end="url(#arrowhead)"/>
    <text x="380" y="140" font-size="14" font-weight="bold" text-anchor="middle" fill="#ff6b6b">進化</text>
  </g>
  
  <!-- Apps SDK搭載後 -->
  <g transform="translate(460, 80)">
    <rect x="0" y="0" width="240" height="140" rx="10" fill="#fff3e0" stroke="#f57c00" stroke-width="2"/>
    <text x="120" y="30" font-size="16" font-weight="bold" text-anchor="middle" fill="#f57c00">Apps SDK搭載後</text>
    <text x="120" y="60" font-size="14" text-anchor="middle" fill="#424242">会話型OS</text>
    <text x="120" y="85" font-size="12" text-anchor="middle" fill="#666">対話 → アプリ操作</text>
    <text x="120" y="110" font-size="12" text-anchor="middle" fill="#666">アプリストア機能</text>
  </g>
  
  <!-- 中央の仕組み -->
  <g transform="translate(150, 260)">
    <rect x="0" y="0" width="500" height="80" rx="10" fill="#e8f5e9" stroke="#388e3c" stroke-width="2"/>
    <text x="250" y="30" font-size="16" font-weight="bold" text-anchor="middle" fill="#388e3c">技術基盤：MCP (Model Context Protocol)</text>
    <text x="250" y="55" font-size="13" text-anchor="middle" fill="#424242">AIとアプリの安全な通信を実現する標準プロトコル</text>
  </g>
  
  <!-- 連携アプリ -->
  <text x="400" y="380" font-size="16" font-weight="bold" text-anchor="middle" fill="#1a1a1a">主要連携アプリ</text>
  
  <!-- アプリアイコン群 -->
  <g transform="translate(80, 400)">
    <rect x="0" y="0" width="120" height="60" rx="8" fill="#fff" stroke="#ddd" stroke-width="2"/>
    <text x="60" y="25" font-size="13" font-weight="bold" text-anchor="middle" fill="#e91e63">Canva</text>
    <text x="60" y="45" font-size="10" text-anchor="middle" fill="#666">デザイン生成</text>
  </g>
  
  <g transform="translate(220, 400)">
    <rect x="0" y="0" width="120" height="60" rx="8" fill="#fff" stroke="#ddd" stroke-width="2"/>
    <text x="60" y="25" font-size="13" font-weight="bold" text-anchor="middle" fill="#0288d1">Coursera</text>
    <text x="60" y="45" font-size="10" text-anchor="middle" fill="#666">教育・学習</text>
  </g>
  
  <g transform="translate(360, 400)">
    <rect x="0" y="0" width="120" height="60" rx="8" fill="#fff" stroke="#ddd" stroke-width="2"/>
    <text x="60" y="25" font-size="13" font-weight="bold" text-anchor="middle" fill="#00897b">Zillow</text>
    <text x="60" y="45" font-size="10" text-anchor="middle" fill="#666">不動産検索</text>
  </g>
  
  <g transform="translate(500, 400)">
    <rect x="0" y="0" width="120" height="60" rx="8" fill="#fff" stroke="#ddd" stroke-width="2"/>
    <text x="60" y="25" font-size="13" font-weight="bold" text-anchor="middle" fill="#1db954">Spotify</text>
    <text x="60" y="45" font-size="10" text-anchor="middle" fill="#666">音楽再生</text>
  </g>
  
  <g transform="translate(640, 400)">
    <rect x="0" y="0" width="120" height="60" rx="8" fill="#fff" stroke="#ddd" stroke-width="2"/>
    <text x="60" y="25" font-size="13" font-weight="bold" text-anchor="middle" fill="#666">他多数</text>
    <text x="60" y="45" font-size="10" text-anchor="middle" fill="#666">EC・旅行等</text>
  </g>
  
  <!-- 主要機能 -->
  <g transform="translate(50, 490)">
    <rect x="0" y="0" width="220" height="80" rx="8" fill="#fce4ec" stroke="#c2185b" stroke-width="2"/>
    <text x="110" y="25" font-size="14" font-weight="bold" text-anchor="middle" fill="#c2185b">表示形式</text>
    <text x="110" y="45" font-size="11" text-anchor="middle" fill="#424242">・インライン表示</text>
    <text x="110" y="62" font-size="11" text-anchor="middle" fill="#424242">・全画面表示・PinP</text>
  </g>
  
  <g transform="translate(290, 490)">
    <rect x="0" y="0" width="220" height="80" rx="8" fill="#f3e5f5" stroke="#7b1fa2" stroke-width="2"/>
    <text x="110" y="25" font-size="14" font-weight="bold" text-anchor="middle" fill="#7b1fa2">アプリ内課金</text>
    <text x="110" y="45" font-size="11" text-anchor="middle" fill="#424242">ACP導入で</text>
    <text x="110" y="62" font-size="11" text-anchor="middle" fill="#424242">収益化が可能</text>
  </g>
  
  <g transform="translate(530, 490)">
    <rect x="0" y="0" width="220" height="80" rx="8" fill="#e0f2f1" stroke="#00796b" stroke-width="2"/>
    <text x="110" y="25" font-size="14" font-weight="bold" text-anchor="middle" fill="#00796b">安全性</text>
    <text x="110" y="45" font-size="11" text-anchor="middle" fill="#424242">厳格なガイドライン</text>
    <text x="110" y="62" font-size="11" text-anchor="middle" fill="#424242">プライバシー保護</text>
  </g>
  
  <!-- 矢印の定義 -->
  <defs>
    <marker id="arrowhead" markerWidth="10" markerHeight="10" refX="9" refY="3" orient="auto">
      <polygon points="0 0, 10 3, 0 6" fill="#ff6b6b"/>
    </marker>
  </defs>
</svg>