<svg viewBox="0 0 800 600" xmlns="http://www.w3.org/2000/svg">
  <!-- 背景 -->
  <rect width="800" height="600" fill="#f8f9fa"/>
  
  <!-- タイトル -->
  <text x="400" y="30" font-size="24" font-weight="bold" text-anchor="middle" fill="#1a202c">
    AIが社員の知識を学ぶ仕組み
  </text>
  
  <!-- RAG構造の3層 -->
  <g>
    <!-- データ層 -->
    <rect x="50" y="80" width="220" height="140" fill="#e3f2fd" stroke="#1976d2" stroke-width="2" rx="8"/>
    <text x="160" y="105" font-size="16" font-weight="bold" text-anchor="middle" fill="#1976d2">
      1. データ層
    </text>
    <text x="160" y="125" font-size="13" text-anchor="middle" fill="#333">
      (ナレッジベース)
    </text>
    
    <!-- データ層の要素 -->
    <rect x="70" y="140" width="80" height="30" fill="#fff" stroke="#1976d2" rx="4"/>
    <text x="110" y="160" font-size="12" text-anchor="middle" fill="#333">議事録</text>
    
    <rect x="160" y="140" width="80" height="30" fill="#fff" stroke="#1976d2" rx="4"/>
    <text x="200" y="160" font-size="12" text-anchor="middle" fill="#333">マニュアル</text>
    
    <rect x="70" y="180" width="80" height="30" fill="#fff" stroke="#1976d2" rx="4"/>
    <text x="110" y="200" font-size="12" text-anchor="middle" fill="#333">FAQ</text>
    
    <rect x="160" y="180" width="80" height="30" fill="#fff" stroke="#1976d2" rx="4"/>
    <text x="200" y="200" font-size="12" text-anchor="middle" fill="#333">チャット</text>
    
    <!-- 知識検索層 -->
    <rect x="290" y="80" width="220" height="140" fill="#fff3e0" stroke="#f57c00" stroke-width="2" rx="8"/>
    <text x="400" y="105" font-size="16" font-weight="bold" text-anchor="middle" fill="#f57c00">
      2. 知識検索層
    </text>
    <text x="400" y="125" font-size="13" text-anchor="middle" fill="#333">
      (ベクトルDB)
    </text>
    
    <!-- 検索層の要素 -->
    <ellipse cx="400" cy="160" rx="70" ry="35" fill="#fff" stroke="#f57c00" stroke-width="2"/>
    <text x="400" y="155" font-size="11" text-anchor="middle" fill="#333">文脈検索</text>
    <text x="400" y="170" font-size="10" text-anchor="middle" fill="#666">Pinecone/FAISS</text>
    
    <!-- 生成層 -->
    <rect x="530" y="80" width="220" height="140" fill="#f3e5f5" stroke="#7b1fa2" stroke-width="2" rx="8"/>
    <text x="640" y="105" font-size="16" font-weight="bold" text-anchor="middle" fill="#7b1fa2">
      3. 生成層
    </text>
    <text x="640" y="125" font-size="13" text-anchor="middle" fill="#333">
      (LLM)
    </text>
    
    <!-- 生成層の要素 -->
    <rect x="560" y="145" width="160" height="60" fill="#fff" stroke="#7b1fa2" rx="4"/>
    <text x="640" y="170" font-size="13" font-weight="bold" text-anchor="middle" fill="#333">GPT-5 / Claude 4.1</text>
    <text x="640" y="190" font-size="11" text-anchor="middle" fill="#666">自然な回答を生成</text>
  </g>
  
  <!-- 矢印 -->
  <defs>
    <marker id="arrowhead" markerWidth="10" markerHeight="7" refX="9" refY="3.5" orient="auto">
      <polygon points="0 0, 10 3.5, 0 7" fill="#333"/>
    </marker>
  </defs>
  
  <line x1="270" y1="150" x2="290" y2="150" stroke="#333" stroke-width="2" marker-end="url(#arrowhead)"/>
  <line x1="510" y1="150" x2="530" y2="150" stroke="#333" stroke-width="2" marker-end="url(#arrowhead)"/>
  
  <!-- 3つのアプローチ -->
  <text x="50" y="260" font-size="18" font-weight="bold" fill="#1a202c">
    社員ナレッジ活用の3つのアプローチ
  </text>
  
  <!-- アプローチ1 -->
  <rect x="50" y="280" width="220" height="100" fill="#e8f5e9" stroke="#388e3c" stroke-width="2" rx="8"/>
  <text x="160" y="305" font-size="14" font-weight="bold" text-anchor="middle" fill="#388e3c">
    ① FAQ型学習
  </text>
  <text x="160" y="330" font-size="11" text-anchor="middle" fill="#333">
    繰り返し質問を学習
  </text>
  <text x="160" y="350" font-size="11" text-anchor="middle" fill="#333">
    → 自動回答で
  </text>
  <text x="160" y="365" font-size="11" text-anchor="middle" fill="#333">
    問い合わせ負担軽減
  </text>
  
  <!-- アプローチ2 -->
  <rect x="290" y="280" width="220" height="100" fill="#fff3e0" stroke="#f57c00" stroke-width="2" rx="8"/>
  <text x="400" y="305" font-size="14" font-weight="bold" text-anchor="middle" fill="#f57c00">
    ② ドキュメント連携型
  </text>
  <text x="400" y="330" font-size="11" text-anchor="middle" fill="#333">
    文書をベクトル化
  </text>
  <text x="400" y="350" font-size="11" text-anchor="middle" fill="#333">
    → 部署間の
  </text>
  <text x="400" y="365" font-size="11" text-anchor="middle" fill="#333">
    ナレッジ共有促進
  </text>
  
  <!-- アプローチ3 -->
  <rect x="530" y="280" width="220" height="100" fill="#f3e5f5" stroke="#7b1fa2" stroke-width="2" rx="8"/>
  <text x="640" y="305" font-size="14" font-weight="bold" text-anchor="middle" fill="#7b1fa2">
    ③ 会話型ナレッジ共有
  </text>
  <text x="640" y="330" font-size="11" text-anchor="middle" fill="#333">
    チャットを分析・学習
  </text>
  <text x="640" y="350" font-size="11" text-anchor="middle" fill="#333">
    → 情報の重複・
  </text>
  <text x="640" y="365" font-size="11" text-anchor="middle" fill="#333">
    再確認を削減
  </text>
  
  <!-- 導入ステップ -->
  <text x="50" y="420" font-size="18" font-weight="bold" fill="#1a202c">
    導入の3ステップ
  </text>
  
  <g>
    <!-- Step 1 -->
    <circle cx="150" cy="470" r="45" fill="#e3f2fd" stroke="#1976d2" stroke-width="2"/>
    <text x="150" y="460" font-size="20" font-weight="bold" text-anchor="middle" fill="#1976d2">1</text>
    <text x="150" y="480" font-size="11" text-anchor="middle" fill="#333">データ整備</text>
    <text x="150" y="495" font-size="9" text-anchor="middle" fill="#666">情報の整理</text>
    
    <!-- Step 2 -->
    <circle cx="400" cy="470" r="45" fill="#fff3e0" stroke="#f57c00" stroke-width="2"/>
    <text x="400" y="460" font-size="20" font-weight="bold" text-anchor="middle" fill="#f57c00">2</text>
    <text x="400" y="480" font-size="11" text-anchor="middle" fill="#333">RAG構築</text>
    <text x="400" y="495" font-size="9" text-anchor="middle" fill="#666">環境整備</text>
    
    <!-- Step 3 -->
    <circle cx="650" cy="470" r="45" fill="#f3e5f5" stroke="#7b1fa2" stroke-width="2"/>
    <text x="650" y="460" font-size="20" font-weight="bold" text-anchor="middle" fill="#7b1fa2">3</text>
    <text x="650" y="480" font-size="11" text-anchor="middle" fill="#333">継続学習</text>
    <text x="650" y="495" font-size="9" text-anchor="middle" fill="#666">改善サイクル</text>
    
    <!-- 矢印 -->
    <line x1="195" y1="470" x2="355" y2="470" stroke="#333" stroke-width="2" marker-end="url(#arrowhead)"/>
    <line x1="445" y1="470" x2="605" y2="470" stroke="#333" stroke-width="2" marker-end="url(#arrowhead)"/>
  </g>
  
  <!-- 注意点 -->
  <rect x="50" y="540" width="700" height="45" fill="#ffebee" stroke="#c62828" stroke-width="2" rx="8"/>
  <text x="60" y="560" font-size="12" font-weight="bold" fill="#c62828">⚠️ セキュリティ対策が重要:</text>
  <text x="60" y="575" font-size="10" fill="#333">
    機密情報のマスキング / アクセスログ記録 / ローカルLLM活用
  </text>
</svg>