<svg viewBox="0 0 900 700" xmlns="http://www.w3.org/2000/svg">
  <defs>
    <linearGradient id="gleanGrad" x1="0%" y1="0%" x2="100%" y2="100%">
      <stop offset="0%" style="stop-color:#4f46e5;stop-opacity:1" />
      <stop offset="100%" style="stop-color:#7c3aed;stop-opacity:1" />
    </linearGradient>
    <linearGradient id="dustGrad" x1="0%" y1="0%" x2="100%" y2="100%">
      <stop offset="0%" style="stop-color:#f59e0b;stop-opacity:1" />
      <stop offset="100%" style="stop-color:#ef4444;stop-opacity:1" />
    </linearGradient>
  </defs>
  
  <!-- タイトル -->
  <text x="450" y="40" text-anchor="middle" font-size="26" font-weight="bold" fill="#1f2937">エンタープライズAI市場の二極化</text>
  
  <!-- Glean側（左） -->
  <rect x="40" y="80" width="380" height="580" rx="15" fill="url(#gleanGrad)" opacity="0.15"/>
  
  <!-- Gleanタイトル -->
  <rect x="60" y="100" width="340" height="70" rx="10" fill="url(#gleanGrad)"/>
  <text x="230" y="130" text-anchor="middle" font-size="22" font-weight="bold" fill="white">Glean</text>
  <text x="230" y="155" text-anchor="middle" font-size="14" fill="white">知識のOS戦略</text>
  
  <!-- Glean特徴 -->
  <rect x="70" y="190" width="320" height="60" rx="8" fill="white" stroke="#4f46e5" stroke-width="2"/>
  <text x="230" y="215" text-anchor="middle" font-size="14" font-weight="bold" fill="#1f2937">企業評価額</text>
  <text x="230" y="235" text-anchor="middle" font-size="18" font-weight="bold" fill="#4f46e5">72億ドル（約1兆円）</text>
  
  <rect x="70" y="265" width="320" height="110" rx="8" fill="white" stroke="#4f46e5" stroke-width="2"/>
  <text x="230" y="290" text-anchor="middle" font-size="14" font-weight="bold" fill="#1f2937">コア技術</text>
  <text x="230" y="310" text-anchor="middle" font-size="12" fill="#4b5563">Enterprise Knowledge Graph</text>
  <text x="230" y="330" text-anchor="middle" font-size="12" fill="#4b5563">100以上のSaaS統合</text>
  <text x="230" y="350" text-anchor="middle" font-size="12" fill="#4b5563">厳格なセキュリティ管理</text>
  <text x="230" y="370" text-anchor="middle" font-size="12" fill="#4b5563">（SOC 2, ISO 27001対応）</text>
  
  <rect x="70" y="390" width="320" height="80" rx="8" fill="white" stroke="#4f46e5" stroke-width="2"/>
  <text x="230" y="415" text-anchor="middle" font-size="14" font-weight="bold" fill="#1f2937">導入アプローチ</text>
  <text x="230" y="435" text-anchor="middle" font-size="12" fill="#4b5563">トップダウン型</text>
  <text x="230" y="455" text-anchor="middle" font-size="12" fill="#4b5563">全社インフラとして導入</text>
  
  <rect x="70" y="485" width="320" height="80" rx="8" fill="white" stroke="#4f46e5" stroke-width="2"/>
  <text x="230" y="510" text-anchor="middle" font-size="14" font-weight="bold" fill="#1f2937">強み</text>
  <text x="230" y="530" text-anchor="middle" font-size="12" fill="#4b5563">包括的な企業知識統合</text>
  <text x="230" y="550" text-anchor="middle" font-size="12" fill="#4b5563">エンタープライズグレードの安全性</text>
  
  <rect x="70" y="580" width="320" height="60" rx="8" fill="#4f46e5" opacity="0.1"/>
  <text x="230" y="605" text-anchor="middle" font-size="13" font-weight="bold" fill="#4f46e5">総調達額: 7.6億ドル超</text>
  <text x="230" y="625" text-anchor="middle" font-size="11" fill="#6b7280">ARR: 1億ドル超</text>
  
  <!-- Dust AI側（右） -->
  <rect x="480" y="80" width="380" height="580" rx="15" fill="url(#dustGrad)" opacity="0.15"/>
  
  <!-- Dust AIタイトル -->
  <rect x="500" y="100" width="340" height="70" rx="10" fill="url(#dustGrad)"/>
  <text x="670" y="130" text-anchor="middle" font-size="22" font-weight="bold" fill="white">Dust AI</text>
  <text x="670" y="155" text-anchor="middle" font-size="14" fill="white">実行特化戦略</text>
  
  <!-- Dust AI特徴 -->
  <rect x="510" y="190" width="320" height="60" rx="8" fill="white" stroke="#f59e0b" stroke-width="2"/>
  <text x="670" y="215" text-anchor="middle" font-size="14" font-weight="bold" fill="#1f2937">成長率</text>
  <text x="670" y="235" text-anchor="middle" font-size="18" font-weight="bold" fill="#f59e0b">前年比6倍以上</text>
  
  <rect x="510" y="265" width="320" height="110" rx="8" fill="white" stroke="#f59e0b" stroke-width="2"/>
  <text x="670" y="290" text-anchor="middle" font-size="14" font-weight="bold" fill="#1f2937">コア技術</text>
  <text x="670" y="310" text-anchor="middle" font-size="12" fill="#4b5563">軽量アーキテクチャ</text>
  <text x="670" y="330" text-anchor="middle" font-size="12" fill="#4b5563">モデル・アグノスティック</text>
  <text x="670" y="350" text-anchor="middle" font-size="12" fill="#4b5563">ワークフロー実行に特化</text>
  <text x="670" y="370" text-anchor="middle" font-size="12" fill="#4b5563">（Temporal活用）</text>
  
  <rect x="510" y="390" width="320" height="80" rx="8" fill="white" stroke="#f59e0b" stroke-width="2"/>
  <text x="670" y="415" text-anchor="middle" font-size="14" font-weight="bold" fill="#1f2937">導入アプローチ</text>
  <text x="670" y="435" text-anchor="middle" font-size="12" fill="#4b5563">ボトムアップ型</text>
  <text x="670" y="455" text-anchor="middle" font-size="12" fill="#4b5563">部門単位で迅速に導入</text>
  
  <rect x="510" y="485" width="320" height="80" rx="8" fill="white" stroke="#f59e0b" stroke-width="2"/>
  <text x="670" y="510" text-anchor="middle" font-size="14" font-weight="bold" fill="#1f2937">強み</text>
  <text x="670" y="530" text-anchor="middle" font-size="12" fill="#4b5563">驚異的な導入率（70-100%）</text>
  <text x="670" y="550" text-anchor="middle" font-size="12" fill="#4b5563">高い資本効率と即時ROI</text>
  
  <rect x="510" y="580" width="320" height="60" rx="8" fill="#f59e0b" opacity="0.1"/>
  <text x="670" y="605" text-anchor="middle" font-size="13" font-weight="bold" fill="#f59e0b">総調達額: 2,150万ドル</text>
  <text x="670" y="625" text-anchor="middle" font-size="11" fill="#6b7280">ARR: 730万ドル（資本効率2.5倍）</text>
  
  <!-- 中央の矢印と説明 -->
  <path d="M 430 350 L 470 350" stroke="#9ca3af" stroke-width="3" fill="none"/>
  <path d="M 470 350 L 430 350" stroke="#9ca3af" stroke-width="3" fill="none"/>
  <text x="450" y="340" text-anchor="middle" font-size="12" font-weight="bold" fill="#6b7280">相互補完</text>
  <text x="450" y="370" text-anchor="middle" font-size="10" fill="#9ca3af">将来的に融合</text>
  
  <!-- 下部の説明 -->
  <text x="450" y="685" text-anchor="middle" font-size="13" fill="#4b5563">共通の競合: Microsoft Copilot</text>
</svg>